<svg width="0" height="0" class="hidden">
  <symbol fill="none" xmlns="http://www.w3.org/2000/svg" viewBox="0 0 14 16" id="arrow-right">
    <path d="M1 7C0.447715 7 0 7.44772 0 8C0 8.55228 0.447715 9 1 9L1 7ZM13.7071 8.70711C14.0976 8.31658 14.0976 7.68342 13.7071 7.29289L7.34315 0.928932C6.95262 0.538408 6.31946 0.538408 5.92893 0.928932C5.53841 1.31946 5.53841 1.95262 5.92893 2.34315L11.5858 8L5.92893 13.6569C5.53841 14.0474 5.53841 14.6805 5.92893 15.0711C6.31946 15.4616 6.95262 15.4616 7.34315 15.0711L13.7071 8.70711ZM1 9L13 9V7L1 7L1 9Z" fill="#406AA1"></path>
  </symbol>
  <symbol fill="none" xmlns="http://www.w3.org/2000/svg" viewBox="0 0 19 35" id="facebook">
    <path d="M18.1924 0.00728233L13.6582 0C8.56406 0 5.27199 3.38083 5.27199 8.61355V12.585H0.712976C0.319018 12.585 0 12.9046 0 13.299V19.0531C0 19.4476 0.319382 19.7668 0.712976 19.7668H5.27199V34.2864C5.27199 34.6807 5.59101 35 5.98497 35H11.9332C12.3272 35 12.6462 34.6803 12.6462 34.2864V19.7668H17.9768C18.3707 19.7668 18.6897 19.4476 18.6897 19.0531L18.6919 13.299C18.6919 13.1097 18.6166 12.9283 18.4831 12.7943C18.3496 12.6603 18.1677 12.585 17.9786 12.585H12.6462V9.21835C12.6462 7.60022 13.0314 6.77876 15.1372 6.77876L18.1917 6.77767C18.5853 6.77767 18.9043 6.45796 18.9043 6.06399V0.720951C18.9043 0.327342 18.5857 0.00801057 18.1924 0.00728233Z" fill="#0C6C97"></path>
  </symbol>
  <symbol fill="none" xmlns="http://www.w3.org/2000/svg" viewBox="0 0 16 8" id="arrow-select">
    <path d="M8 8L-6.99382e-07 1.39876e-06L16 0L8 8Z" fill="#2B5996"></path>
  </symbol>
  <symbol fill="none" xmlns="http://www.w3.org/2000/svg" viewBox="0 0 35 35" id="instagram">
    <path d="M34.8948 10.285C34.8096 8.42216 34.5137 7.15002 34.0812 6.03704C33.6419 4.86931 32.953 3.8116 32.0627 2.93735C31.1887 2.04706 30.1307 1.35785 28.963 0.91832C27.8498 0.485996 26.5779 0.190394 24.7151 0.105744C22.8489 0.0202944 22.2526 0 17.5 0C12.7474 0 12.1511 0.0202944 10.2849 0.10521C8.42209 0.190394 7.15023 0.486263 6.03699 0.918854C4.86927 1.35812 3.81157 2.04706 2.93732 2.93735C2.04704 3.81133 1.35784 4.86904 0.918312 6.03677C0.485992 7.15002 0.190392 8.42216 0.105743 10.2847C0.0202942 12.1512 0 12.7473 0 17.4999C0 22.2528 0.0202942 22.8491 0.105743 24.7153C0.190659 26.5778 0.486526 27.85 0.919113 28.9632C1.35838 30.1308 2.04731 31.1887 2.93758 32.0627C3.81157 32.953 4.86954 33.6419 6.03725 34.0812C7.15023 34.514 8.42236 34.8096 10.2851 34.8948C12.1517 34.98 12.7477 35 17.5003 35C22.2528 35 22.8491 34.98 24.7154 34.8948C26.5782 34.8096 27.85 34.514 28.9633 34.0812C31.3139 33.1722 33.1722 31.314 34.0812 28.9632C34.514 27.85 34.8096 26.5778 34.8948 24.7153C34.9797 22.8488 35 22.2528 35 17.5002C35 12.7473 34.9797 12.1512 34.8948 10.285ZM31.7447 24.5719C31.6669 26.2782 31.3818 27.2048 31.1422 27.8214C30.5534 29.3478 29.3473 30.554 27.8209 31.1428C27.2044 31.3823 26.2778 31.6675 24.5715 31.7452C22.7266 31.8296 22.173 31.8472 17.5 31.8472C12.8267 31.8472 12.2734 31.8296 10.4283 31.7452C8.72223 31.6675 7.79564 31.3823 7.1788 31.1428C6.41884 30.8622 5.73124 30.4149 5.16674 29.8336C4.58542 29.2691 4.13815 28.5816 3.8575 27.8214C3.61797 27.2048 3.33279 26.2782 3.25508 24.5719C3.17097 22.7268 3.15308 22.1732 3.15308 17.5004C3.15308 12.8274 3.17097 12.2741 3.25508 10.4286C3.33305 8.72231 3.61797 7.79571 3.8575 7.17913C4.13815 6.4189 4.58569 5.73129 5.16674 5.16678C5.73124 4.58546 6.41884 4.13819 7.17907 3.8578C7.79564 3.618 8.72223 3.33308 10.4285 3.25511C12.2737 3.171 12.8273 3.15311 17.5 3.15311H17.4997C22.1725 3.15311 22.726 3.171 24.5715 3.25538C26.2778 3.33308 27.2041 3.61827 27.8209 3.8578C28.5809 4.13845 29.2685 4.58573 29.833 5.16678C30.4143 5.73129 30.8616 6.4189 31.142 7.17913C31.3818 7.79571 31.6669 8.72231 31.7447 10.4286C31.8288 12.2738 31.8467 12.8274 31.8467 17.5002C31.8467 22.1732 31.829 22.7265 31.7447 24.5719Z" fill="#0C6C97"></path>
    <path d="M16.9999 8C12.0294 8 8 12.0296 8 17.0001C8 21.9706 12.0294 26 16.9999 26C21.9706 26 26 21.9706 26 17.0001C26 12.0296 21.9706 8 16.9999 8ZM16.9999 22.8422C13.7736 22.8419 11.1578 20.2265 11.1581 16.9998C11.1581 13.7736 13.7736 11.1578 17.0002 11.1578C20.2267 11.1581 22.8421 13.7736 22.8421 16.9998C22.8421 20.2265 20.2264 22.8422 16.9999 22.8422Z" fill="#0C6C97"></path>
    <path d="M29 8.00015C29 9.10462 28.1046 10 27.0001 10C25.8954 10 25 9.10462 25 8.00015C25 6.89543 25.8954 6 27.0001 6C28.1046 6 29 6.89543 29 8.00015Z" fill="#0C6C97"></path>
  </symbol>
  <symbol fill="none" xmlns="http://www.w3.org/2000/svg" viewBox="0 0 275 51" id="Logo">
    <path d="M184.578 43.4252C183.911 43.7498 183.08 43.9121 182.086 43.9121C180.802 43.9121 179.774 43.5315 179.002 42.7703C178.23 42.009 177.844 41.0102 177.844 39.7736C177.844 38.4444 178.278 37.3701 179.147 36.5509C180.015 35.7317 181.116 35.3221 182.451 35.3221C183.307 35.3221 184.016 35.4361 184.578 35.6641V36.7016C183.932 36.3693 183.218 36.2032 182.438 36.2032C181.402 36.2032 180.56 36.5219 179.914 37.1595C179.272 37.7971 178.951 38.6492 178.951 39.7157C178.951 40.7281 179.251 41.5357 179.851 42.1385C180.456 42.7374 181.246 43.0369 182.224 43.0369C183.13 43.0369 183.915 42.8514 184.578 42.4805V43.4252Z" fill="#98999B"></path>
    <path d="M191.753 36.3423H189.147V43.773H188.09V36.3423H185.49V35.4612H191.753V36.3423Z" fill="#98999B"></path>
    <path d="M196.813 43.9121C195.533 43.9121 194.507 43.5238 193.735 42.7471C192.967 41.9704 192.583 40.9599 192.583 39.7157C192.583 38.3787 192.976 37.3122 193.76 36.5161C194.545 35.7201 195.613 35.3221 196.964 35.3221C198.21 35.3221 199.213 35.7085 199.972 36.4814C200.736 37.2542 201.117 38.2647 201.117 39.5128C201.117 40.8691 200.727 41.9414 199.947 42.7297C199.166 43.518 198.122 43.9121 196.813 43.9121ZM196.888 36.2032C195.94 36.2032 195.17 36.5181 194.578 37.1479C193.987 37.7778 193.691 38.6047 193.691 39.6287C193.691 40.6527 193.978 41.4777 194.553 42.1037C195.132 42.7258 195.885 43.0369 196.813 43.0369C197.803 43.0369 198.583 42.7394 199.154 42.1443C199.725 41.5492 200.01 40.7165 200.01 39.6461C200.01 38.5487 199.733 37.7005 199.179 37.1016C198.625 36.5026 197.862 36.2032 196.888 36.2032Z" fill="#98999B"></path>
    <path d="M212.094 43.773H211.043V38.1971C211.043 37.7565 211.072 37.2175 211.131 36.5799H211.105C211.005 36.9547 210.915 37.2233 210.835 37.3856L207.751 43.773H207.235L204.157 37.432C204.069 37.2465 203.979 36.9625 203.887 36.5799H203.862C203.895 36.9122 203.912 37.4551 203.912 38.2086V43.773H202.892V35.4612H204.289L207.059 41.2575C207.273 41.7018 207.411 42.0342 207.474 42.2544H207.512C207.692 41.7984 207.837 41.4584 207.946 41.2343L210.772 35.4612H212.094V43.773Z" fill="#98999B"></path>
    <path d="M221.458 43.773H220.288L219.331 41.4429H215.505L214.605 43.773H213.428L216.889 35.4612H217.984L221.458 43.773ZM218.985 40.5677L217.569 37.0262C217.523 36.9103 217.477 36.7248 217.431 36.4698H217.405C217.363 36.7055 217.315 36.891 217.261 37.0262L215.857 40.5677H218.985Z" fill="#98999B"></path>
    <path d="M228.13 36.3423H225.524V43.773H224.467V36.3423H221.868V35.4612H228.13V36.3423Z" fill="#98999B"></path>
    <path d="M233.19 43.9121C231.91 43.9121 230.884 43.5238 230.112 42.7471C229.344 41.9704 228.96 40.9599 228.96 39.7157C228.96 38.3787 229.353 37.3122 230.137 36.5161C230.922 35.7201 231.99 35.3221 233.341 35.3221C234.587 35.3221 235.59 35.7085 236.349 36.4814C237.113 37.2542 237.495 38.2647 237.495 39.5128C237.495 40.8691 237.104 41.9414 236.324 42.7297C235.544 43.518 234.499 43.9121 233.19 43.9121ZM233.265 36.2032C232.317 36.2032 231.547 36.5181 230.955 37.1479C230.364 37.7778 230.068 38.6047 230.068 39.6287C230.068 40.6527 230.355 41.4777 230.93 42.1037C231.509 42.7258 232.262 43.0369 233.19 43.0369C234.18 43.0369 234.96 42.7394 235.531 42.1443C236.102 41.5492 236.387 40.7165 236.387 39.6461C236.387 38.5487 236.11 37.7005 235.556 37.1016C235.002 36.5026 234.239 36.2032 233.265 36.2032Z" fill="#98999B"></path>
    <path d="M245.563 43.773H244.506V36.3423H242.001C241.711 38.4366 241.483 39.9166 241.315 40.7822C241.147 41.6477 240.977 42.2853 240.805 42.6949C240.633 43.1045 240.4 43.4098 240.106 43.6107C239.813 43.8078 239.46 43.9063 239.049 43.9063C238.718 43.9063 238.43 43.8658 238.187 43.7846V42.8688C238.401 42.9809 238.638 43.0369 238.898 43.0369C239.158 43.0369 239.401 42.8939 239.628 42.608C239.859 42.322 240.092 41.5782 240.327 40.3764C240.566 39.1747 240.83 37.5363 241.12 35.4612H245.563V43.773Z" fill="#98999B"></path>
    <path d="M251.58 43.9121C250.3 43.9121 249.274 43.5238 248.502 42.7471C247.734 41.9704 247.35 40.9599 247.35 39.7157C247.35 38.3787 247.743 37.3122 248.527 36.5161C249.312 35.7201 250.38 35.3221 251.731 35.3221C252.977 35.3221 253.98 35.7085 254.739 36.4814C255.503 37.2542 255.884 38.2647 255.884 39.5128C255.884 40.8691 255.494 41.9414 254.714 42.7297C253.933 43.518 252.889 43.9121 251.58 43.9121ZM251.655 36.2032C250.707 36.2032 249.937 36.5181 249.345 37.1479C248.754 37.7778 248.458 38.6047 248.458 39.6287C248.458 40.6527 248.745 41.4777 249.32 42.1037C249.899 42.7258 250.652 43.0369 251.58 43.0369C252.57 43.0369 253.35 42.7394 253.921 42.1443C254.491 41.5492 254.777 40.7165 254.777 39.6461C254.777 38.5487 254.5 37.7005 253.946 37.1016C253.392 36.5026 252.629 36.2032 251.655 36.2032Z" fill="#98999B"></path>
    <path d="M262.342 36.3654H258.723V43.773H257.659V35.4612H262.342V36.3654Z" fill="#98999B"></path>
    <path d="M264.796 43.773H263.739V35.4612H264.796V43.773Z" fill="#98999B"></path>
    <path d="M274.451 43.773H273.393V37.7681C273.393 37.2272 273.414 36.8465 273.456 36.6263H273.418C273.339 36.8156 273.242 36.9895 273.129 37.1479L268.484 43.773H267.175V35.4612H268.232V41.3154C268.232 41.9414 268.216 42.3491 268.182 42.5384H268.207C268.3 42.3684 268.417 42.1829 268.56 41.982L273.091 35.4612H274.451V43.773ZM273.116 32.9341C273.053 33.4789 272.814 33.9098 272.399 34.2266C271.988 34.5396 271.472 34.6961 270.851 34.6961C270.213 34.6961 269.693 34.5396 269.29 34.2266C268.891 33.9098 268.673 33.4789 268.635 32.9341H269.655C269.714 33.6605 270.116 34.0238 270.863 34.0238C271.199 34.0238 271.476 33.9291 271.694 33.7398C271.912 33.5465 272.046 33.278 272.097 32.9341H273.116Z" fill="#98999B"></path>
    <path d="M114.431 43.4252C113.753 43.7498 112.909 43.9121 111.898 43.9121C110.593 43.9121 109.548 43.5315 108.763 42.7703C107.978 42.009 107.586 41.0102 107.586 39.7736C107.586 38.4444 108.027 37.3701 108.91 36.5509C109.793 35.7317 110.913 35.3221 112.269 35.3221C113.139 35.3221 113.86 35.4361 114.431 35.6641V36.7016C113.774 36.3693 113.049 36.2032 112.256 36.2032C111.203 36.2032 110.348 36.5219 109.691 37.1595C109.038 37.7971 108.712 38.6492 108.712 39.7157C108.712 40.7281 109.017 41.5357 109.627 42.1385C110.241 42.7374 111.045 43.0369 112.039 43.0369C112.96 43.0369 113.757 42.8514 114.431 42.4805V43.4252Z" fill="#98999B"></path>
    <path d="M117.374 43.773H116.299V35.4612H117.374V43.773Z" fill="#98999B"></path>
    <path d="M129.145 43.773H128.077V38.1971C128.077 37.7565 128.107 37.2175 128.167 36.5799H128.141C128.039 36.9547 127.947 37.2233 127.866 37.3856L124.731 43.773H124.207L121.078 37.432C120.989 37.2465 120.897 36.9625 120.803 36.5799H120.778C120.812 36.9122 120.829 37.4551 120.829 38.2086V43.773H119.792V35.4612H121.213L124.027 41.2575C124.245 41.7018 124.386 42.0342 124.45 42.2544H124.488C124.671 41.7984 124.819 41.4584 124.929 41.2343L127.802 35.4612H129.145V43.773Z" fill="#98999B"></path>
    <path d="M136.426 43.773H131.564V35.4612H136.221V36.3423H132.638V39.1071H135.952V39.9823H132.638V42.892H136.426V43.773Z" fill="#98999B"></path>
    <path d="M145.587 43.773H144.512V37.7681C144.512 37.2272 144.533 36.8465 144.576 36.6263H144.538C144.457 36.8156 144.359 36.9895 144.243 37.1479L139.522 43.773H138.191V35.4612H139.266V41.3154C139.266 41.9414 139.249 42.3491 139.215 42.5384H139.241C139.334 42.3684 139.454 42.1829 139.599 41.982L144.205 35.4612H145.587V43.773ZM144.231 32.9341C144.167 33.4789 143.924 33.9098 143.501 34.2266C143.083 34.5396 142.559 34.6961 141.928 34.6961C141.279 34.6961 140.75 34.5396 140.341 34.2266C139.936 33.9098 139.714 33.4789 139.676 32.9341H140.712C140.772 33.6605 141.181 34.0238 141.94 34.0238C142.282 34.0238 142.563 33.9291 142.785 33.7398C143.007 33.5465 143.143 33.278 143.194 32.9341H144.231Z" fill="#98999B"></path>
    <path d="M154.902 43.773H153.827V39.9823H149.08V43.773H148.005V35.4612H149.08V39.1071H153.827V35.4612H154.902V43.773Z" fill="#98999B"></path>
    <path d="M164.703 43.773H163.628V37.7681C163.628 37.2272 163.649 36.8465 163.692 36.6263H163.653C163.572 36.8156 163.474 36.9895 163.359 37.1479L158.638 43.773H157.307V35.4612H158.382V41.3154C158.382 41.9414 158.365 42.3491 158.331 42.5384H158.356C158.45 42.3684 158.569 42.1829 158.714 41.982L163.321 35.4612H164.703V43.773Z" fill="#98999B"></path>
    <path d="M173.454 43.773H172.143L170.032 40.5909C169.968 40.4943 169.897 40.3571 169.82 40.1794H169.795C169.752 40.2682 169.68 40.4054 169.577 40.5909L167.402 43.773H166.084L169.155 39.5939L166.327 35.4612H167.645L169.52 38.3825C169.643 38.5757 169.752 38.7689 169.846 38.9622H169.872C170.008 38.7071 170.128 38.5062 170.23 38.3593L172.181 35.4612H173.416L170.531 39.5824L173.454 43.773Z" fill="#98999B"></path>
    <path d="M68.4584 43.9123H67.5355V38.0206C67.5355 37.5552 67.5613 36.9856 67.6129 36.3119H67.5908C67.5023 36.7079 67.4231 36.9917 67.3531 37.1632L64.6452 43.9123H64.1921L61.4897 37.2122C61.4123 37.0162 61.3331 36.7161 61.2521 36.3119H61.23C61.2594 36.663 61.2742 37.2367 61.2742 38.0329V43.9123H60.3789V35.1299H61.6058L64.0373 41.2543C64.2252 41.7239 64.3468 42.075 64.4021 42.3077H64.4352C64.5937 41.8259 64.7208 41.4666 64.8165 41.2298L67.2979 35.1299H68.4584V43.9123Z" fill="#98999B"></path>
    <path d="M74.7474 43.9123H70.5473V35.1299H74.5705V36.0608H71.4758V38.9822H74.3384V39.9069H71.4758V42.9814H74.7474V43.9123Z" fill="#98999B"></path>
    <path d="M77.201 40.5929V43.9123H76.2726V35.1299H78.45C79.2974 35.1299 79.9532 35.3585 80.4174 35.8158C80.8853 36.2731 81.1192 36.9182 81.1192 37.7511C81.1192 38.5841 80.8595 39.2659 80.34 39.7967C79.8242 40.3275 79.1261 40.5929 78.2455 40.5929H77.201ZM77.201 36.0608V39.662H78.1737C78.8147 39.662 79.3029 39.5007 79.6382 39.1781C79.9771 38.8515 80.1466 38.3922 80.1466 37.8001C80.1466 36.6406 79.5276 36.0608 78.2897 36.0608H77.201Z" fill="#98999B"></path>
    <path d="M86.8169 43.9123H82.6168V35.1299H86.64V36.0608H83.5453V38.9822H86.4079V39.9069H83.5453V42.9814H86.8169V43.9123Z" fill="#98999B"></path>
    <path d="M97.2174 43.9123H95.974L92.8737 39.8947C92.7853 39.7804 92.7171 39.6783 92.6692 39.5885H92.6416V43.9123H91.7629V39.5885H91.7408C91.6856 39.6905 91.6174 39.7926 91.5363 39.8947L88.4361 43.9123H87.1816L90.8124 39.3557L87.4248 35.1299H88.5632L91.5363 38.9332C91.6174 39.0352 91.6856 39.1353 91.7408 39.2333H91.7629V35.1299H92.6416V39.2333H92.6692C92.7171 39.1434 92.7853 39.0434 92.8737 38.9332L95.8469 35.1299H96.9798L93.5921 39.3557L97.2174 43.9123Z" fill="#98999B"></path>
    <path d="M104.291 43.9123H103.263L102.423 41.4503H99.0632L98.2729 43.9123H97.2395L100.279 35.1299H101.241L104.291 43.9123ZM102.119 40.5255L100.876 36.7835C100.835 36.661 100.795 36.465 100.754 36.1955H100.732C100.695 36.4446 100.653 36.6406 100.605 36.7835L99.3727 40.5255H102.119Z" fill="#98999B"></path>
    <path d="M80.3038 10.388C80.5026 9.29467 80.7345 8.5989 81.1321 7.90312C78.7797 6.57784 76.1954 5.98146 72.8159 5.98146C64.6654 5.98146 59.8281 10.4212 59.8281 17.909C59.8281 24.9993 64.4004 29.2071 72.1533 29.2071C75.0689 29.2071 77.9845 28.7101 80.9996 27.7161C80.9002 26.8216 80.9002 26.424 80.9002 25.1981V24.2041V23.1439C80.9002 22.1168 81.0327 19.897 81.1652 18.5717C80.4363 18.6711 80.0719 18.7042 79.5086 18.7042C78.9785 18.7042 78.6472 18.6711 78.0508 18.5717C78.2165 19.9632 78.2496 20.9241 78.2496 22.5475C78.2496 24.0385 78.2165 25.0987 78.1171 26.8547C76.4936 27.5836 74.5388 27.9812 72.7165 27.9812C66.819 27.9812 63.1082 23.9391 63.1082 17.6108C63.1082 11.382 66.8853 7.20735 72.5177 7.20735C75.4334 7.20735 78.1833 8.36697 79.9725 10.388H80.3038Z" fill="#006B95"></path>
    <path d="M85.9492 13.3037C86.1149 15.0928 86.2143 18.1078 86.2143 21.6198C86.2143 24.8337 86.148 27.0204 85.9492 28.7764C86.645 28.677 87.0094 28.6438 87.4401 28.6438C87.904 28.6438 88.2353 28.677 88.7986 28.7764C88.6992 27.3186 88.5998 23.7072 88.5998 21.3216C88.5998 18.3066 88.6992 14.6289 88.7986 13.3037C88.2353 13.4031 87.904 13.4362 87.4733 13.4362C87.0094 13.4362 86.6781 13.4031 85.9492 13.3037Z" fill="#006B95"></path>
    <path d="M100.717 13.0717C98.0996 13.0717 96.2774 13.7344 94.7533 15.2585C93.2955 16.7163 92.5666 18.6711 92.5666 21.1229C92.5666 26.0264 95.681 29.2071 100.485 29.2071C105.223 29.2071 108.437 25.9933 108.437 21.2885C108.437 18.7705 107.708 16.65 106.35 15.1922C105.024 13.7344 103.235 13.0717 100.717 13.0717ZM100.518 14.0988C103.798 14.0988 105.554 16.5837 105.554 21.2554C105.554 25.4963 103.6 28.18 100.485 28.18C97.3707 28.18 95.4491 25.5294 95.4491 21.1229C95.4491 16.7163 97.3376 14.0988 100.518 14.0988Z" fill="#006B95"></path>
    <path d="M120.009 15.8548C119.976 15.5566 119.943 15.3247 119.943 15.1922C119.943 14.7615 120.075 13.9 120.208 13.3037C119.876 13.138 119.644 13.0717 119.214 13.0717C117.491 13.0717 115.9 14.397 114.774 16.7163C114.774 15.6229 114.774 15.5235 114.84 13.3037C114.277 13.4031 113.979 13.4362 113.581 13.4362C113.184 13.4362 112.852 13.4031 112.19 13.3037C112.422 17.3789 112.455 18.5054 112.455 20.6921C112.455 24.2373 112.355 27.5505 112.19 28.7764C112.919 28.677 113.25 28.6438 113.614 28.6438C114.012 28.6438 114.31 28.677 115.006 28.7764C114.873 27.5505 114.807 25.4963 114.807 23.3427C114.807 19.2674 114.84 18.8036 115.072 18.0084C115.503 16.4512 116.762 15.4573 118.187 15.4573C118.816 15.4573 119.214 15.5898 119.777 15.9874L120.009 15.8548Z" fill="#006B95"></path>
    <path d="M123.292 24.7011C123.259 26.8878 123.226 27.7493 123.093 28.7764C123.789 28.677 124.121 28.6438 124.485 28.6438C124.849 28.6438 125.148 28.677 125.91 28.7764C125.744 26.3909 125.744 26.0264 125.744 23.6409C125.744 18.8367 125.81 18.1078 126.274 16.9151C126.837 15.5235 128.229 14.6952 129.952 14.6952C131.41 14.6952 132.437 15.2253 133.132 16.3187C133.629 17.1139 133.828 18.1741 133.828 20.2945C133.828 22.5144 133.663 26.9541 133.497 28.7764C134.292 28.677 134.557 28.6438 134.855 28.6438C135.187 28.6438 135.319 28.6438 136.313 28.7764C136.214 27.5836 136.214 27.4511 136.214 23.9391L136.346 18.4391C136.346 15.0597 134.392 13.0717 131.012 13.0717C128.627 13.0717 126.937 14.0657 125.678 16.153V14.6289C125.711 14.0657 125.711 13.8338 125.744 13.3037C125.247 13.4031 124.949 13.4362 124.551 13.4362C124.121 13.4362 123.789 13.4031 123.093 13.3037C123.292 15.4573 123.392 17.8428 123.392 19.6319C123.392 19.7976 123.392 20.3277 123.359 20.9572L123.292 24.7011Z" fill="#006B95"></path>
    <path d="M148.345 13.0717C145.727 13.0717 143.905 13.7344 142.381 15.2585C140.923 16.7163 140.194 18.6711 140.194 21.1229C140.194 26.0264 143.308 29.2071 148.113 29.2071C152.851 29.2071 156.064 25.9933 156.064 21.2885C156.064 18.7705 155.335 16.65 153.977 15.1922C152.652 13.7344 150.863 13.0717 148.345 13.0717ZM148.146 14.0988C151.426 14.0988 153.182 16.5837 153.182 21.2554C153.182 25.4963 151.227 28.18 148.113 28.18C144.998 28.18 143.077 25.5294 143.077 21.1229C143.077 16.7163 144.965 14.0988 148.146 14.0988Z" fill="#006B95"></path>
    <path d="M168.663 6.41218C168.862 8.73143 168.995 13.0055 168.995 17.412C168.995 21.4542 168.829 27.418 168.663 28.7764C169.624 28.677 170.221 28.6438 171.016 28.6438C171.546 28.6438 172.242 28.677 173.202 28.7101C174.461 28.7432 175.687 28.7764 176.151 28.7764C180.26 28.7764 182.778 28.0806 185.031 26.3246C187.747 24.171 189.305 20.6921 189.305 16.7494C189.305 13.5356 188.244 10.8188 186.223 8.96335C184.269 7.10795 182.049 6.41218 178.239 6.41218C177.443 6.41218 175.952 6.44531 174.594 6.47844C173.103 6.51157 171.943 6.5447 171.181 6.5447C170.121 6.5447 169.591 6.51157 168.663 6.41218ZM171.811 27.2854C171.678 25.662 171.612 21.3879 171.612 17.0476C171.612 14.1651 171.712 9.22841 171.778 7.90312C173.236 7.73746 174.329 7.6712 175.853 7.6712C179.995 7.6712 181.916 8.20131 183.507 9.75852C185.13 11.382 186.025 13.9663 186.025 17.1139C186.025 20.4602 185.097 23.2102 183.308 25.0324C181.519 26.8547 179.233 27.5505 174.958 27.5505C173.865 27.5505 173.004 27.4842 171.811 27.2854Z" fill="#006B95"></path>
    <path d="M206.127 25.5626C204.769 27.0866 203.046 27.8818 201.025 27.8818C197.679 27.8818 195.525 25.4632 195.525 21.7192V20.9903C197.414 20.9241 199.103 20.8909 201.456 20.8909C205.133 20.8909 205.597 20.8909 206.856 20.9903C206.889 20.5596 206.889 20.1951 206.889 19.9632C206.889 15.5566 204.504 13.0717 200.263 13.0717C197.811 13.0717 196.088 13.7344 194.73 15.1922C193.338 16.6831 192.642 18.7373 192.642 21.2222C192.642 26.1258 195.658 29.2071 200.429 29.2071C202.615 29.2071 204.04 28.7101 206.061 27.2854C206.061 26.6228 206.094 26.4903 206.26 25.927L206.326 25.6288L206.127 25.5626ZM204.272 19.6319C203.112 19.7313 202.682 19.7644 200.627 19.7644C197.977 19.7644 196.685 19.7313 195.558 19.6982C195.79 16.2524 197.579 14.0988 200.197 14.0988C201.853 14.0988 203.046 14.894 203.709 16.4512C204.04 17.2133 204.172 18.0416 204.272 19.6319Z" fill="#006B95"></path>
    <path d="M210.652 24.7011C210.619 26.8878 210.586 27.7493 210.454 28.7764C211.149 28.677 211.481 28.6438 211.845 28.6438C212.21 28.6438 212.508 28.677 213.27 28.7764C213.104 26.3909 213.104 26.0264 213.104 23.6409C213.104 18.8367 213.17 18.1078 213.634 16.9151C214.198 15.5235 215.589 14.6952 217.312 14.6952C218.77 14.6952 219.797 15.2253 220.493 16.3187C220.99 17.1139 221.188 18.1741 221.188 20.2945C221.188 22.5144 221.023 26.9541 220.857 28.7764C221.652 28.677 221.917 28.6438 222.215 28.6438C222.547 28.6438 222.679 28.6438 223.673 28.7764C223.574 27.5836 223.574 27.4511 223.574 23.9391L223.706 18.4391C223.706 15.0597 221.752 13.0717 218.372 13.0717C215.987 13.0717 214.297 14.0657 213.038 16.153V14.6289C213.071 14.0657 213.071 13.8338 213.104 13.3037C212.607 13.4031 212.309 13.4362 211.911 13.4362C211.481 13.4362 211.149 13.4031 210.454 13.3037C210.652 15.4573 210.752 17.8428 210.752 19.6319C210.752 19.7976 210.752 20.3277 210.719 20.9572L210.652 24.7011Z" fill="#006B95"></path>
    <path d="M231.497 8.96335C230.602 9.46033 229.642 9.89105 228.747 10.0898C228.813 10.9513 228.946 12.8729 228.946 13.2374C228.946 13.3037 228.946 13.4693 228.913 13.6681H226.759C226.825 13.9663 226.858 14.132 226.858 14.3308C226.858 14.5627 226.825 14.6952 226.759 14.9603C227.123 14.9271 227.654 14.894 228.879 14.894C228.913 15.2916 228.913 15.3579 228.913 16.0536C228.913 18.2735 228.846 21.7855 228.78 23.0114C228.747 23.9059 228.714 24.7674 228.714 25.0987C228.714 27.5174 230.172 29.0746 232.491 29.0746C233.385 29.0746 234.048 28.942 235.307 28.5445V27.7824C234.711 27.9481 234.346 28.0143 233.849 28.0143C232.855 28.0143 232.06 27.5505 231.696 26.7553C231.331 25.9933 231.232 25.165 231.232 23.2764C231.232 19.9964 231.298 15.8548 231.364 14.894H231.629H233.187H234.512H234.91C234.81 14.5958 234.777 14.4633 234.777 14.2645C234.777 14.0657 234.81 13.9332 234.91 13.5687L231.331 13.635C231.364 12.641 231.364 12.0115 231.398 11.4151L231.596 9.09588L231.497 8.96335Z" fill="#006B95"></path>
    <path d="M239.147 16.7163C240.008 15.2253 241.466 14.397 243.222 14.397C245.475 14.397 246.966 15.9211 246.933 18.2072V19.4C246.072 19.9632 245.343 20.1951 242.957 20.5927C240.671 20.9572 239.677 21.2885 238.849 21.8849C237.921 22.5807 237.358 23.8066 237.358 25.165C237.358 27.6168 239.114 29.2071 241.864 29.2071C243.752 29.2071 245.376 28.4451 246.867 26.8547C247.066 28.2131 247.761 28.8095 249.087 28.8095C249.849 28.8095 250.379 28.677 251.273 28.3125V27.683C251.008 27.7493 250.975 27.7493 250.611 27.7493C249.451 27.7493 249.286 27.2523 249.286 23.7403C249.286 22.9782 249.319 21.421 249.385 20.3277C249.418 19.4331 249.451 18.6379 249.451 18.1741C249.451 14.9603 247.496 13.0717 244.15 13.0717C242.228 13.0717 240.737 13.5687 238.849 14.8609C238.882 15.3247 238.915 15.5235 238.915 15.7886C238.915 16.0536 238.882 16.2524 238.849 16.7163H239.147ZM246.966 20.7253C246.9 22.8126 246.867 24.4029 246.867 25.5294C246.005 26.8878 244.448 27.8155 243.024 27.8155C241.334 27.8155 240.042 26.5234 240.042 24.8336C240.042 23.3096 240.87 22.2162 242.427 21.7855C243.156 21.5536 245.508 21.0235 246.966 20.7253Z" fill="#006B95"></path>
    <path d="M254.428 15.5566V20.659C254.428 23.8397 254.395 25.4963 254.229 28.7764C254.958 28.677 255.289 28.6438 255.654 28.6438C256.018 28.6438 256.316 28.677 257.045 28.7764C256.946 26.9872 256.847 22.0505 256.847 16.3518C256.847 12.2766 256.946 6.18025 257.045 4.39111C256.548 4.45738 256.317 4.49051 255.687 4.49051C255.057 4.49051 254.759 4.45738 254.229 4.39111C254.362 6.24651 254.428 9.09588 254.428 12.0778V15.5566Z" fill="#006B95"></path>
    <path d="M274.236 25.5626C272.877 27.0866 271.155 27.8818 269.133 27.8818C265.787 27.8818 263.634 25.4632 263.634 21.7192V20.9903C265.522 20.9241 267.212 20.8909 269.564 20.8909C273.242 20.8909 273.706 20.8909 274.965 20.9903C274.998 20.5596 274.998 20.1951 274.998 19.9632C274.998 15.5566 272.612 13.0717 268.371 13.0717C265.92 13.0717 264.197 13.7344 262.838 15.1922C261.447 16.6831 260.751 18.7373 260.751 21.2222C260.751 26.1258 263.766 29.2071 268.537 29.2071C270.724 29.2071 272.148 28.7101 274.17 27.2854C274.17 26.6228 274.203 26.4903 274.368 25.927L274.435 25.6288L274.236 25.5626ZM272.38 19.6319C271.221 19.7313 270.79 19.7644 268.736 19.7644C266.085 19.7644 264.793 19.7313 263.667 19.6982C263.899 16.2524 265.688 14.0988 268.305 14.0988C269.962 14.0988 271.155 14.894 271.817 16.4512C272.148 17.2133 272.281 18.0416 272.38 19.6319Z" fill="#006B95"></path>
    <path d="M85.625 8.32813C85.625 7.41404 86.395 6.65479 87.3234 6.65479C88.2125 6.65479 88.9717 7.42484 88.9717 8.32813C88.9717 9.26197 88.2322 10.0015 87.2983 10.0015C86.3645 10.0015 85.625 9.26197 85.625 8.32813Z" fill="#FF0182"></path>
    <path d="M85.625 8.32813C85.625 7.41404 86.395 6.65479 87.3234 6.65479C88.2125 6.65479 88.9717 7.42484 88.9717 8.32813C88.9717 9.26197 88.2322 10.0015 87.2983 10.0015C86.3645 10.0015 85.625 9.26197 85.625 8.32813Z" fill="#FF0182"></path>
    <path d="M32.0818 50.4988C30.8888 44.6557 26.5859 31.3126 23.5586 24.8174C26.4177 9.44546 38.2464 0.622837 41.2176 0.839343C43.5946 1.01255 45.609 3.36525 46.3191 4.51995C48.1691 7.40669 51.3083 16.5821 46.8683 29.8322C42.4283 43.0824 36.233 47.2825 32.0818 50.4988Z" fill="#006B95"></path>
    <g filter="url(#filter0_d_808_3254)">
      <path d="M23.4671 24.9843C28.7592 7.36072 38.3587 1.71972 42.2829 1.05216C39.5023 -0.420081 36.2845 -0.346901 32.3042 1.26924L16.2148 21.1331C16.7754 21.4037 23.3939 25.2283 23.4671 24.9843Z" fill="#EC008C"></path>
    </g>
    <path d="M23.4659 24.9843C29.7193 7.67848 38.3575 1.71972 42.2817 1.05216C39.5011 -0.420081 36.2832 -0.346901 32.3029 1.26924C21.0143 6.45774 9.97136 5.34585 10.8523 5.174C16.7181 4.0297 19.0166 3.38018 21.5598 2.19705C18.2318 0.132015 14.6439 -0.463366 9.71058 0.673258C5.77787 1.57935 -1.2792 5.73693 0.200792 21.845C1.68079 37.953 11.3581 47.8191 16.1232 50.5435C20.1993 32.8804 22.4455 27.808 23.4659 24.9843Z" fill="#EC008C"></path>
    <defs>
      <filter id="filter0_d_808_3254" x="14.2794" y="0" width="29.9393" height="28.8666" filterUnits="userSpaceOnUse" color-interpolation-filters="sRGB">
        <feFlood flood-opacity="0" result="BackgroundImageFix"></feFlood>
        <feColorMatrix in="SourceAlpha" type="matrix" values="0 0 0 0 0 0 0 0 0 0 0 0 0 0 0 0 0 0 127 0" result="hardAlpha"></feColorMatrix>
        <feOffset dy="1.93548"></feOffset>
        <feGaussianBlur stdDeviation="0.967742"></feGaussianBlur>
        <feComposite in2="hardAlpha" operator="out"></feComposite>
        <feColorMatrix type="matrix" values="0 0 0 0 0 0 0 0 0 0 0 0 0 0 0 0 0 0 0.35 0"></feColorMatrix>
        <feBlend mode="normal" in2="BackgroundImageFix" result="effect1_dropShadow_808_3254"></feBlend>
        <feBlend mode="normal" in="SourceGraphic" in2="effect1_dropShadow_808_3254" result="shape"></feBlend>
      </filter>
    </defs>
  </symbol>
  <symbol fill="none" xmlns="http://www.w3.org/2000/svg" viewBox="0 0 22 18" id="telegram">
    <path d="M8.03944 16.4163C7.40628 16.4163 7.46384 16.186 7.29116 15.6104L5.44922 9.56655L19.5515 1.27783" fill="white"></path>
    <path d="M8.03613 16.4166C8.43906 16.4166 8.6693 16.1863 8.9571 15.9561L11.5473 13.481L8.32394 11.5239" fill="#A9C9DD"></path>
    <path d="M8.32411 11.524L16.0948 17.2225C16.9006 17.7406 17.5914 17.4528 17.8216 16.4167L20.9874 1.56608C21.2752 0.299747 20.4694 -0.275858 19.606 0.127065L1.12904 7.26457C-0.0797299 7.72506 -0.0797299 8.47334 0.898799 8.76114L5.67632 10.2577L16.6128 3.29289C17.1309 3.00509 17.5914 3.12021 17.246 3.52314" fill="#406AA1"></path>
  </symbol>
  <symbol fill="none" xmlns="http://www.w3.org/2000/svg" viewBox="0 0 19 20" id="viber">
    <path d="M9.1001 3.77471C9.75429 3.7595 10.4044 3.88121 11.0088 4.13204C11.6132 4.38288 12.1585 4.75728 12.6097 5.23125C13.0608 5.70521 13.4079 6.26825 13.6287 6.88425C13.8495 7.50026 13.939 8.15561 13.8916 8.80826M9.87449 6.33988C10.0733 6.33313 10.2715 6.36733 10.4565 6.44034C10.6416 6.51336 10.8097 6.62363 10.9504 6.76432C11.0911 6.90501 11.2014 7.07312 11.2744 7.25821C11.3474 7.44329 11.3816 7.64141 11.3749 7.84027L9.87449 6.33988ZM9.53569 5.03309C9.95498 5.03263 10.37 5.1173 10.7556 5.28197C11.1412 5.44664 11.4894 5.68788 11.779 5.99107C12.0686 6.29426 12.2936 6.6531 12.4405 7.04584C12.5873 7.43857 12.6529 7.85703 12.6333 8.27586L9.53569 5.03309Z" stroke="white" stroke-width="0.683594" stroke-linecap="round"></path>
    <path fill-rule="evenodd" clip-rule="evenodd" d="M1.45199 8.56671C1.45199 4.16236 2.27478 1.45199 9.24431 1.45199C16.2138 1.45199 17.0366 4.16236 17.0366 8.56671C17.0366 12.9711 16.2138 15.6814 9.24431 15.6814L7.98592 15.633L5.42075 18.6822C5.22715 18.8758 5.03355 18.7306 5.03355 18.537V15.1974C4.74315 15.1974 3.53316 14.6167 3.19437 14.2779C2.12958 13.1647 1.45199 12.3419 1.45199 8.56671ZM0 8.56671C0 2.46838 2.66197 0 9.24431 0C15.8266 0 18.4886 2.46838 18.4886 8.56671C18.4886 14.6651 15.8266 17.1334 9.24431 17.1334C8.76031 17.1334 8.37312 17.1334 7.69552 17.0366L5.85634 19.1178C5.51754 19.505 4.50115 19.6502 4.50115 18.4886V16.4558C4.21076 16.4558 3.53316 16.1654 2.61357 15.5846C1.69398 14.9555 0 13.4551 0 8.56671ZM10.7931 10.5995C11.1158 10.18 11.503 10.1155 11.9547 10.4059L13.6971 11.7127C13.9552 12.0353 13.8423 12.4871 13.3583 13.0679C12.8743 13.6487 12.4225 13.8907 12.0031 13.7939C10.293 13.4067 8.64738 12.4387 7.06633 10.8899C5.48528 9.34111 4.50115 7.66326 4.11396 5.85634C4.11396 5.21101 4.51729 4.66249 5.32395 4.21076C5.74341 3.92036 6.09834 4.00103 6.38874 4.45276L7.59872 6.14674C7.79232 6.53393 7.67939 6.88886 7.25993 7.21153C5.37235 7.93752 9.7283 12.6323 10.7931 10.5995Z" fill="#406AA1"></path>
  </symbol>
  <symbol fill="none" xmlns="http://www.w3.org/2000/svg" viewBox="0 0 16 13" id="arrow-down">
    <path d="M9 1C9 0.447715 8.55228 2.41411e-08 8 0C7.44772 -2.41411e-08 7 0.447715 7 1L9 1ZM7.29289 12.7071C7.68342 13.0976 8.31658 13.0976 8.70711 12.7071L15.0711 6.34315C15.4616 5.95262 15.4616 5.31946 15.0711 4.92893C14.6805 4.53841 14.0474 4.53841 13.6569 4.92893L8 10.5858L2.34315 4.92893C1.95262 4.53841 1.31946 4.53841 0.928932 4.92893C0.538408 5.31946 0.538408 5.95262 0.928932 6.34315L7.29289 12.7071ZM7 1L7 12L9 12L9 1L7 1Z" fill="#406AA1"></path>
  </symbol>
    <symbol fill="none" xmlns="http://www.w3.org/2000/svg" viewBox="0 0 50 51" id="Logo-mobile">
    <path d="M32.0818 50.4993C30.8888 44.6561 26.5859 31.3131 23.5586 24.8179C26.4177 9.44595 38.2464 0.623325 41.2176 0.839831C43.5946 1.01304 45.609 3.36573 46.3191 4.52043C48.1691 7.40718 51.3083 16.5826 46.8683 29.8327C42.4283 43.0829 36.233 47.283 32.0818 50.4993Z" fill="#006B95"></path>
    <g filter="url(#filter0_d_686_3293)">
      <path d="M23.4671 24.9843C28.7592 7.36072 38.3587 1.71972 42.2829 1.05216C39.5023 -0.420081 36.2845 -0.346901 32.3042 1.26924L16.2148 21.1331C16.7754 21.4037 23.3939 25.2283 23.4671 24.9843Z" fill="#EC008C"></path>
    </g>
    <path d="M23.4659 24.9843C29.7193 7.67848 38.3575 1.71972 42.2817 1.05216C39.5011 -0.420081 36.2832 -0.346901 32.3029 1.26924C21.0143 6.45774 9.97136 5.34585 10.8523 5.174C16.7181 4.0297 19.0166 3.38018 21.5598 2.19705C18.2318 0.132015 14.6439 -0.463366 9.71058 0.673258C5.77787 1.57935 -1.2792 5.73693 0.200792 21.845C1.68079 37.953 11.3581 47.8191 16.1232 50.5435C20.1993 32.8804 22.4455 27.808 23.4659 24.9843Z" fill="#EC008C"></path>
    <defs>
      <filter id="filter0_d_686_3293" x="14.2794" y="0" width="29.9393" height="28.8661" filterUnits="userSpaceOnUse" color-interpolation-filters="sRGB">
        <feFlood flood-opacity="0" result="BackgroundImageFix"></feFlood>
        <feColorMatrix in="SourceAlpha" type="matrix" values="0 0 0 0 0 0 0 0 0 0 0 0 0 0 0 0 0 0 127 0" result="hardAlpha"></feColorMatrix>
        <feOffset dy="1.93548"></feOffset>
        <feGaussianBlur stdDeviation="0.967742"></feGaussianBlur>
        <feComposite in2="hardAlpha" operator="out"></feComposite>
        <feColorMatrix type="matrix" values="0 0 0 0 0 0 0 0 0 0 0 0 0 0 0 0 0 0 0.35 0"></feColorMatrix>
        <feBlend mode="normal" in2="BackgroundImageFix" result="effect1_dropShadow_686_3293"></feBlend>
        <feBlend mode="normal" in="SourceGraphic" in2="effect1_dropShadow_686_3293" result="shape"></feBlend>
      </filter>
    </defs>
  </symbol>
    <symbol fill="none" xmlns="http://www.w3.org/2000/svg" viewBox="0 0 22 25" id="vacancy">
    <path d="M16.1388 0.0223776C14.9248 0.151502 13.8113 0.670189 12.8051 1.57625C12.4551 1.8914 11.9935 2.44948 11.7288 2.87844C11.5954 3.09292 6.22726 12.2848 5.99539 12.6941C4.97601 14.4931 4.5932 16.3337 4.95195 17.7168C5.09851 18.2837 5.43758 18.8177 5.84664 19.1262C6.64945 19.7325 7.6732 19.7631 8.78882 19.2182C9.33351 18.9512 9.84539 18.5791 10.3726 18.067C10.9173 17.5374 11.3854 16.953 11.8032 16.2833C12.1116 15.7865 14.6951 11.3416 14.7344 11.2387C14.7891 11.0965 14.8066 10.8098 14.7716 10.6566C14.6644 10.1948 14.2532 9.87086 13.7763 9.87086C13.3848 9.87086 13.0763 10.0591 12.8554 10.4311C12.8073 10.5143 12.1969 11.556 11.5013 12.7488C10.8057 13.9394 10.1844 15.003 10.1166 15.1124C9.49757 16.1257 8.74507 16.9092 7.9882 17.3316C7.78476 17.4454 7.5157 17.533 7.33414 17.5461C7.17883 17.5571 7.1657 17.5549 7.10008 17.5002C7.01039 17.4257 6.95133 17.2922 6.90539 17.069C6.8507 16.802 6.87258 16.2177 6.94914 15.8456C7.09133 15.154 7.35383 14.4603 7.72351 13.7993C8.01007 13.2872 13.3694 4.11716 13.4985 3.918C14.146 2.91564 15.1829 2.2175 16.2329 2.07743C16.526 2.03803 16.9876 2.0643 17.2544 2.13214C17.5279 2.20436 17.8648 2.36632 18.0923 2.53921C19.1926 3.36867 19.4573 5.14578 18.7113 6.68652C18.5779 6.96447 10.5323 20.7589 10.3507 21.0215C9.3357 22.4944 7.29914 23.0372 5.6607 22.269C5.41133 22.153 3.98289 21.3389 3.69195 21.1463C3.24133 20.8486 2.73164 20.2687 2.48008 19.7653C1.95945 18.7257 1.95508 17.5002 2.46695 16.4781C2.54133 16.3337 4.24539 13.4098 8.60945 5.94241C9.35539 4.66649 10.0007 3.54814 10.0444 3.4584C10.1123 3.31615 10.1232 3.27019 10.1298 3.09292C10.1407 2.85874 10.1166 2.74275 10.016 2.55016C9.84757 2.22625 9.49101 2.01396 9.11695 2.01396C8.83476 2.01615 8.61382 2.11026 8.40601 2.32036C8.28132 2.4451 8.1807 2.60706 7.5507 3.6882C7.15695 4.36228 5.49008 7.21834 3.84508 10.035C2.20008 12.8517 0.804453 15.2438 0.743203 15.3532C0.415078 15.9332 0.178828 16.6576 0.0803906 17.3776C0.0278906 17.7497 0.0278906 18.45 0.0803906 18.822C0.202891 19.7237 0.513515 20.5532 0.99914 21.282C1.24195 21.6431 1.4082 21.8466 1.72101 22.1596C2.20226 22.6411 2.43414 22.803 3.50383 23.418C4.86008 24.1971 5.07664 24.2978 5.76789 24.4794C6.33226 24.6283 6.55101 24.6523 7.24664 24.6523C7.92039 24.6523 8.1282 24.6305 8.66851 24.4991C9.44726 24.3066 10.3179 23.8754 10.9348 23.3742C11.3548 23.0306 11.7966 22.547 12.0963 22.0939C12.2276 21.897 20.2535 8.16598 20.4438 7.81362C20.7632 7.22053 21.0148 6.45234 21.1307 5.71261C21.1788 5.39527 21.1854 4.45201 21.1416 4.1478C20.9994 3.20234 20.6866 2.42322 20.1791 1.75133C20.0216 1.54342 19.6629 1.17137 19.4638 1.00723C18.8623 0.514802 18.1316 0.188708 17.331 0.0552059C17.086 0.0136234 16.3904 -0.00388501 16.1388 0.0223776Z" fill="black"></path>
  </symbol>
</svg>