<svg width="16" height="13" viewBox="0 0 16 13" fill="none" xmlns="http://www.w3.org/2000/svg">
<path d="M9 1C9 0.447715 8.55228 2.41411e-08 8 0C7.44772 -2.41411e-08 7 0.447715 7 1L9 1ZM7.29289 12.7071C7.68342 13.0976 8.31658 13.0976 8.70711 12.7071L15.0711 6.34315C15.4616 5.95262 15.4616 5.31946 15.0711 4.92893C14.6805 4.53841 14.0474 4.53841 13.6569 4.92893L8 10.5858L2.34315 4.92893C1.95262 4.53841 1.31946 4.53841 0.928932 4.92893C0.538408 5.31946 0.538408 5.95262 0.928932 6.34315L7.29289 12.7071ZM7 1L7 12L9 12L9 1L7 1Z" fill="#406AA1"/>
</svg>
