<svg width="22" height="18" viewBox="0 0 22 18" fill="none" xmlns="http://www.w3.org/2000/svg">
<path d="M8.03944 16.4163C7.40628 16.4163 7.46384 16.186 7.29116 15.6104L5.44922 9.56655L19.5515 1.27783" fill="white"/>
<path d="M8.03613 16.4166C8.43906 16.4166 8.6693 16.1863 8.9571 15.9561L11.5473 13.481L8.32394 11.5239" fill="#A9C9DD"/>
<path d="M8.32411 11.524L16.0948 17.2225C16.9006 17.7406 17.5914 17.4528 17.8216 16.4167L20.9874 1.56608C21.2752 0.299747 20.4694 -0.275858 19.606 0.127065L1.12904 7.26457C-0.0797299 7.72506 -0.0797299 8.47334 0.898799 8.76114L5.67632 10.2577L16.6128 3.29289C17.1309 3.00509 17.5914 3.12021 17.246 3.52314" fill="#406AA1"/>
</svg>
