<svg width="22" height="25" viewBox="0 0 22 25" fill="none" xmlns="http://www.w3.org/2000/svg">
<path d="M16.1388 0.0223776C14.9248 0.151502 13.8113 0.670189 12.8051 1.57625C12.4551 1.8914 11.9935 2.44948 11.7288 2.87844C11.5954 3.09292 6.22726 12.2848 5.99539 12.6941C4.97601 14.4931 4.5932 16.3337 4.95195 17.7168C5.09851 18.2837 5.43758 18.8177 5.84664 19.1262C6.64945 19.7325 7.6732 19.7631 8.78882 19.2182C9.33351 18.9512 9.84539 18.5791 10.3726 18.067C10.9173 17.5374 11.3854 16.953 11.8032 16.2833C12.1116 15.7865 14.6951 11.3416 14.7344 11.2387C14.7891 11.0965 14.8066 10.8098 14.7716 10.6566C14.6644 10.1948 14.2532 9.87086 13.7763 9.87086C13.3848 9.87086 13.0763 10.0591 12.8554 10.4311C12.8073 10.5143 12.1969 11.556 11.5013 12.7488C10.8057 13.9394 10.1844 15.003 10.1166 15.1124C9.49757 16.1257 8.74507 16.9092 7.9882 17.3316C7.78476 17.4454 7.5157 17.533 7.33414 17.5461C7.17883 17.5571 7.1657 17.5549 7.10008 17.5002C7.01039 17.4257 6.95133 17.2922 6.90539 17.069C6.8507 16.802 6.87258 16.2177 6.94914 15.8456C7.09133 15.154 7.35383 14.4603 7.72351 13.7993C8.01007 13.2872 13.3694 4.11716 13.4985 3.918C14.146 2.91564 15.1829 2.2175 16.2329 2.07743C16.526 2.03803 16.9876 2.0643 17.2544 2.13214C17.5279 2.20436 17.8648 2.36632 18.0923 2.53921C19.1926 3.36867 19.4573 5.14578 18.7113 6.68652C18.5779 6.96447 10.5323 20.7589 10.3507 21.0215C9.3357 22.4944 7.29914 23.0372 5.6607 22.269C5.41133 22.153 3.98289 21.3389 3.69195 21.1463C3.24133 20.8486 2.73164 20.2687 2.48008 19.7653C1.95945 18.7257 1.95508 17.5002 2.46695 16.4781C2.54133 16.3337 4.24539 13.4098 8.60945 5.94241C9.35539 4.66649 10.0007 3.54814 10.0444 3.4584C10.1123 3.31615 10.1232 3.27019 10.1298 3.09292C10.1407 2.85874 10.1166 2.74275 10.016 2.55016C9.84757 2.22625 9.49101 2.01396 9.11695 2.01396C8.83476 2.01615 8.61382 2.11026 8.40601 2.32036C8.28132 2.4451 8.1807 2.60706 7.5507 3.6882C7.15695 4.36228 5.49008 7.21834 3.84508 10.035C2.20008 12.8517 0.804453 15.2438 0.743203 15.3532C0.415078 15.9332 0.178828 16.6576 0.0803906 17.3776C0.0278906 17.7497 0.0278906 18.45 0.0803906 18.822C0.202891 19.7237 0.513515 20.5532 0.99914 21.282C1.24195 21.6431 1.4082 21.8466 1.72101 22.1596C2.20226 22.6411 2.43414 22.803 3.50383 23.418C4.86008 24.1971 5.07664 24.2978 5.76789 24.4794C6.33226 24.6283 6.55101 24.6523 7.24664 24.6523C7.92039 24.6523 8.1282 24.6305 8.66851 24.4991C9.44726 24.3066 10.3179 23.8754 10.9348 23.3742C11.3548 23.0306 11.7966 22.547 12.0963 22.0939C12.2276 21.897 20.2535 8.16598 20.4438 7.81362C20.7632 7.22053 21.0148 6.45234 21.1307 5.71261C21.1788 5.39527 21.1854 4.45201 21.1416 4.1478C20.9994 3.20234 20.6866 2.42322 20.1791 1.75133C20.0216 1.54342 19.6629 1.17137 19.4638 1.00723C18.8623 0.514802 18.1316 0.188708 17.331 0.0552059C17.086 0.0136234 16.3904 -0.00388501 16.1388 0.0223776Z" fill="black"/>
</svg>
