<svg width="19" height="20" viewBox="0 0 19 20" fill="none" xmlns="http://www.w3.org/2000/svg">
<path d="M9.1001 3.77471C9.75429 3.7595 10.4044 3.88121 11.0088 4.13204C11.6132 4.38288 12.1585 4.75728 12.6097 5.23125C13.0608 5.70521 13.4079 6.26825 13.6287 6.88425C13.8495 7.50026 13.939 8.15561 13.8916 8.80826M9.87449 6.33988C10.0733 6.33313 10.2715 6.36733 10.4565 6.44034C10.6416 6.51336 10.8097 6.62363 10.9504 6.76432C11.0911 6.90501 11.2014 7.07312 11.2744 7.25821C11.3474 7.44329 11.3816 7.64141 11.3749 7.84027L9.87449 6.33988ZM9.53569 5.03309C9.95498 5.03263 10.37 5.1173 10.7556 5.28197C11.1412 5.44664 11.4894 5.68788 11.779 5.99107C12.0686 6.29426 12.2936 6.6531 12.4405 7.04584C12.5873 7.43857 12.6529 7.85703 12.6333 8.27586L9.53569 5.03309Z" stroke="white" stroke-width="0.683594" stroke-linecap="round"/>
<path fill-rule="evenodd" clip-rule="evenodd" d="M1.45199 8.56671C1.45199 4.16236 2.27478 1.45199 9.24431 1.45199C16.2138 1.45199 17.0366 4.16236 17.0366 8.56671C17.0366 12.9711 16.2138 15.6814 9.24431 15.6814L7.98592 15.633L5.42075 18.6822C5.22715 18.8758 5.03355 18.7306 5.03355 18.537V15.1974C4.74315 15.1974 3.53316 14.6167 3.19437 14.2779C2.12958 13.1647 1.45199 12.3419 1.45199 8.56671ZM0 8.56671C0 2.46838 2.66197 0 9.24431 0C15.8266 0 18.4886 2.46838 18.4886 8.56671C18.4886 14.6651 15.8266 17.1334 9.24431 17.1334C8.76031 17.1334 8.37312 17.1334 7.69552 17.0366L5.85634 19.1178C5.51754 19.505 4.50115 19.6502 4.50115 18.4886V16.4558C4.21076 16.4558 3.53316 16.1654 2.61357 15.5846C1.69398 14.9555 0 13.4551 0 8.56671ZM10.7931 10.5995C11.1158 10.18 11.503 10.1155 11.9547 10.4059L13.6971 11.7127C13.9552 12.0353 13.8423 12.4871 13.3583 13.0679C12.8743 13.6487 12.4225 13.8907 12.0031 13.7939C10.293 13.4067 8.64738 12.4387 7.06633 10.8899C5.48528 9.34111 4.50115 7.66326 4.11396 5.85634C4.11396 5.21101 4.51729 4.66249 5.32395 4.21076C5.74341 3.92036 6.09834 4.00103 6.38874 4.45276L7.59872 6.14674C7.79232 6.53393 7.67939 6.88886 7.25993 7.21153C5.37235 7.93752 9.7283 12.6323 10.7931 10.5995Z" fill="#406AA1"/>
</svg>
